<svg width="24" height="25" viewBox="0 0 24 25" fill="none" xmlns="http://www.w3.org/2000/svg">
<path fill-rule="evenodd" clip-rule="evenodd" d="M6 4.88721C4.89543 4.88721 4 5.78264 4 6.88721C4 7.99178 4.89543 8.88721 6 8.88721C7.10457 8.88721 8 7.99178 8 6.88721C8 5.78264 7.10457 4.88721 6 4.88721ZM2 6.88721C2 4.67807 3.79086 2.88721 6 2.88721C8.20914 2.88721 10 4.67807 10 6.88721C10 9.09635 8.20914 10.8872 6 10.8872C3.79086 10.8872 2 9.09635 2 6.88721ZM14 3.88721C14 3.33492 14.4477 2.88721 15 2.88721H21C21.5523 2.88721 22 3.33492 22 3.88721V9.88721C22 10.4395 21.5523 10.8872 21 10.8872C20.4477 10.8872 20 10.4395 20 9.88721V6.30142L3.70711 22.5943C3.31658 22.9848 2.68342 22.9848 2.29289 22.5943C1.90237 22.2038 1.90237 21.5706 2.29289 21.1801L18.5858 4.88721H15C14.4477 4.88721 14 4.43949 14 3.88721ZM18 16.8872C16.8954 16.8872 16 17.7826 16 18.8872C16 19.9918 16.8954 20.8872 18 20.8872C19.1046 20.8872 20 19.9918 20 18.8872C20 17.7826 19.1046 16.8872 18 16.8872ZM14 18.8872C14 16.6781 15.7909 14.8872 18 14.8872C20.2091 14.8872 22 16.6781 22 18.8872C22 21.0963 20.2091 22.8872 18 22.8872C15.7909 22.8872 14 21.0963 14 18.8872Z" fill="#535F79"/>
</svg>
