<svg width="24" height="25" viewBox="0 0 24 25" fill="none" xmlns="http://www.w3.org/2000/svg">
<path fill-rule="evenodd" clip-rule="evenodd" d="M10.1542 12.4088C10.3158 12.937 10.0187 13.4961 9.49058 13.6577C6.4413 14.5907 4.57962 17.222 4.08594 20.6556L3.09612 20.5133L4.08639 20.6524C4.06895 20.7766 4.1656 20.8872 4.29009 20.8872H19.7098C19.834 20.8872 19.9305 20.7771 19.9136 20.6533C19.4194 17.2208 17.5579 14.5905 14.5093 13.6577C13.9812 13.4961 13.684 12.937 13.8456 12.4088C14.0072 11.8807 14.5664 11.5836 15.0945 11.7452C19.065 12.9601 21.3193 16.3767 21.8936 20.371L21.894 20.3741C22.0806 21.702 21.0492 22.8872 19.7098 22.8872H4.29009C2.95062 22.8872 1.91929 21.702 2.10584 20.3741L2.10629 20.371L2.1063 20.371C2.6806 16.3767 4.93483 12.9601 8.9054 11.7452C9.43352 11.5836 9.99263 11.8807 10.1542 12.4088Z" fill="#535F79"/>
<path fill-rule="evenodd" clip-rule="evenodd" d="M12.0836 4.8877C9.98497 4.8877 8.28369 6.58897 8.28369 8.6876C8.28369 10.7862 9.98497 12.4875 12.0836 12.4875C14.1822 12.4875 15.8835 10.7862 15.8835 8.6876C15.8835 6.58897 14.1822 4.8877 12.0836 4.8877ZM6.28369 8.6876C6.28369 5.4844 8.8804 2.8877 12.0836 2.8877C15.2868 2.8877 17.8835 5.4844 17.8835 8.6876C17.8835 11.8908 15.2868 14.4875 12.0836 14.4875C8.8804 14.4875 6.28369 11.8908 6.28369 8.6876Z" fill="#535F79"/>
</svg>
