<svg width="24" height="25" viewBox="0 0 24 25" fill="none" xmlns="http://www.w3.org/2000/svg">
<path fill-rule="evenodd" clip-rule="evenodd" d="M15.2117 3.75108C16.3635 2.59925 18.231 2.59925 19.3829 3.75108L21.1362 5.5044C22.288 6.65624 22.288 8.52373 21.1362 9.67557L17.8715 12.9403C16.7197 14.0921 14.8522 14.0921 13.7003 12.9403L13.5186 12.7586L11.8715 14.4057L12.053 14.5873C13.2049 15.7391 13.2049 17.6066 12.053 18.7585L8.78836 22.0231C7.63653 23.175 5.76903 23.175 4.6172 22.0231L2.86388 20.2698C1.71204 19.118 1.71204 17.2505 2.86388 16.0987L6.12856 12.834C7.2804 11.6821 9.14789 11.6821 10.2997 12.834L10.4811 13.0153L12.1282 11.3682L11.947 11.1869C10.7952 10.0351 10.7952 8.1676 11.947 7.01577L15.2117 3.75108ZM14.909 11.3682L16.4731 9.8041C16.857 9.42015 16.857 8.79766 16.4731 8.41371C16.0891 8.02977 15.4666 8.02977 15.0827 8.41371L13.5186 9.97778L13.3374 9.79654C12.9534 9.4126 12.9534 8.7901 13.3374 8.40616L16.6021 5.14147C16.986 4.75753 17.6085 4.75753 17.9925 5.14147L19.7458 6.89479C20.1297 7.27874 20.1297 7.90123 19.7458 8.28518L16.4811 11.5499C16.0972 11.9338 15.4747 11.9338 15.0907 11.5499L14.909 11.3682ZM9.0907 14.4057L8.90934 14.2244C8.52539 13.8404 7.9029 13.8404 7.51895 14.2244L4.25427 17.489C3.87032 17.873 3.87032 18.4955 4.25426 18.8794L6.00759 20.6327C6.39153 21.0167 7.01403 21.0167 7.39797 20.6327L10.6627 17.3681C11.0466 16.9841 11.0466 16.3616 10.6627 15.9777L10.4811 15.7961L8.91626 17.3609C8.53232 17.7449 7.90982 17.7449 7.52588 17.3609C7.14193 16.977 7.14193 16.3545 7.52588 15.9705L9.0907 14.4057Z" fill="#535F79"/>
</svg>
