<svg width="24" height="25" viewBox="0 0 24 25" fill="none" xmlns="http://www.w3.org/2000/svg">
<path fill-rule="evenodd" clip-rule="evenodd" d="M13 5.88721C13 4.23035 14.3431 2.88721 16 2.88721H19C20.6569 2.88721 22 4.23035 22 5.88721V8.88721C22 10.5441 20.6569 11.8872 19 11.8872H16C14.3431 11.8872 13 10.5441 13 8.88721V5.88721ZM16 4.88721C15.4477 4.88721 15 5.33492 15 5.88721V8.88721C15 9.43949 15.4477 9.88721 16 9.88721H19C19.5523 9.88721 20 9.43949 20 8.88721V5.88721C20 5.33492 19.5523 4.88721 19 4.88721H16Z" fill="#22A081"/>
<path fill-rule="evenodd" clip-rule="evenodd" d="M2 5.88721C2 4.23035 3.34315 2.88721 5 2.88721H8C9.65685 2.88721 11 4.23035 11 5.88721V8.88721C11 10.5441 9.65685 11.8872 8 11.8872H5C3.34315 11.8872 2 10.5441 2 8.88721V5.88721ZM5 4.88721C4.44772 4.88721 4 5.33492 4 5.88721V8.88721C4 9.43949 4.44772 9.88721 5 9.88721H8C8.55228 9.88721 9 9.43949 9 8.88721V5.88721C9 5.33492 8.55228 4.88721 8 4.88721H5Z" fill="#22A081"/>
<path fill-rule="evenodd" clip-rule="evenodd" d="M2 16.8872C2 15.2304 3.34315 13.8872 5 13.8872H8C9.65685 13.8872 11 15.2304 11 16.8872V19.8872C11 21.5441 9.65685 22.8872 8 22.8872H5C3.34315 22.8872 2 21.5441 2 19.8872V16.8872ZM5 15.8872C4.44772 15.8872 4 16.3349 4 16.8872V19.8872C4 20.4395 4.44772 20.8872 5 20.8872H8C8.55228 20.8872 9 20.4395 9 19.8872V16.8872C9 16.3349 8.55228 15.8872 8 15.8872H5Z" fill="#22A081"/>
<path fill-rule="evenodd" clip-rule="evenodd" d="M17.5 13.8872C18.0523 13.8872 18.5 14.3349 18.5 14.8872V21.8872C18.5 22.4395 18.0523 22.8872 17.5 22.8872C16.9477 22.8872 16.5 22.4395 16.5 21.8872V14.8872C16.5 14.3349 16.9477 13.8872 17.5 13.8872Z" fill="#22A081"/>
<path fill-rule="evenodd" clip-rule="evenodd" d="M22 18.3872C22 18.9395 21.5523 19.3872 21 19.3872L14 19.3872C13.4477 19.3872 13 18.9395 13 18.3872C13 17.8349 13.4477 17.3872 14 17.3872L21 17.3872C21.5523 17.3872 22 17.8349 22 18.3872Z" fill="#22A081"/>
</svg>
