<svg width="20" height="21" viewBox="0 0 20 21" fill="none" xmlns="http://www.w3.org/2000/svg">
<path fill-rule="evenodd" clip-rule="evenodd" d="M10.7071 1.18059C10.3166 0.790064 9.68342 0.790064 9.29289 1.18059L0.292893 10.1806C-0.0976311 10.5711 -0.0976311 11.2043 0.292893 11.5948C0.683417 11.9853 1.31658 11.9853 1.70711 11.5948L3 10.3019V18.8877C3 19.9923 3.89543 20.8877 5 20.8877H9L9 14.8877C9 14.3354 9.44772 13.8877 10 13.8877C10.5523 13.8877 11 14.3354 11 14.8877L11 20.8877H15C16.1046 20.8877 17 19.9923 17 18.8877V10.3019L18.2929 11.5948C18.6834 11.9853 19.3166 11.9853 19.7071 11.5948C20.0976 11.2043 20.0976 10.5711 19.7071 10.1806L10.7071 1.18059Z" fill="white"/>
</svg>
