<svg width="24" height="25" viewBox="0 0 24 25" fill="none" xmlns="http://www.w3.org/2000/svg">
<path fill-rule="evenodd" clip-rule="evenodd" d="M12.0007 10.5161C10.6913 10.5161 9.62988 11.5776 9.62988 12.8869C9.62988 14.1962 10.6913 15.2577 12.0007 15.2577C13.31 15.2577 14.3715 14.1962 14.3715 12.8869C14.3715 11.5776 13.31 10.5161 12.0007 10.5161ZM7.62988 12.8869C7.62988 10.473 9.58675 8.51611 12.0007 8.51611C14.4146 8.51611 16.3715 10.473 16.3715 12.8869C16.3715 15.3008 14.4146 17.2577 12.0007 17.2577C9.58675 17.2577 7.62988 15.3008 7.62988 12.8869Z" fill="#535F79"/>
<path fill-rule="evenodd" clip-rule="evenodd" d="M12.7606 5.20246C12.3345 4.78044 11.6576 4.78428 11.2408 5.20106L10.4262 6.01566C9.85092 6.59095 9.06843 6.9153 8.25281 6.9153H7.10112C6.50734 6.9153 6.02809 7.39455 6.02809 7.98833V9.14002C6.02809 9.95564 5.70374 10.7381 5.12846 11.3134L4.31385 12.128C3.89538 12.5465 3.89538 13.2279 4.31385 13.6464L5.12846 14.461C5.70374 15.0363 6.02809 15.8188 6.02809 16.6344V17.7861C6.02809 18.3799 6.50734 18.8591 7.10112 18.8591H8.25281C9.06843 18.8591 9.85092 19.1835 10.4262 19.7588L11.2408 20.5734C11.6593 20.9918 12.3407 20.9918 12.7592 20.5734L13.5738 19.7588C14.1491 19.1835 14.9316 18.8591 15.7472 18.8591H16.8989C17.4927 18.8591 17.9719 18.3799 17.9719 17.7861V16.6344C17.9719 15.8188 18.2963 15.0363 18.8715 14.461L19.6862 13.6464C20.1046 13.2279 20.1046 12.5465 19.6861 12.128L18.8715 11.3134C18.2963 10.7381 17.9719 9.95564 17.9719 9.14002V7.98833C17.9719 7.39455 17.4927 6.9153 16.8989 6.9153H15.7472C14.9316 6.9153 14.1491 6.59095 13.5738 6.01566L12.7616 5.2035C12.7613 5.20315 12.7609 5.20281 12.7606 5.20246ZM9.8266 3.78684C11.0275 2.58598 12.9677 2.58949 14.1709 3.7844L14.1734 3.78684L14.1734 3.78684L14.988 4.60145C15.188 4.80144 15.4617 4.9153 15.7472 4.9153H16.8989C18.5972 4.9153 19.9719 6.28998 19.9719 7.98833V9.14002C19.9719 9.42552 20.0858 9.69921 20.2858 9.8992L21.1004 10.7138C22.2999 11.9133 22.2999 13.8611 21.1004 15.0606L20.2858 15.8752C20.0858 16.0752 19.9719 16.3489 19.9719 16.6344V17.7861C19.9719 19.4844 18.5972 20.8591 16.8989 20.8591H15.7472C15.4617 20.8591 15.188 20.973 14.988 21.173L14.1734 21.9876C12.9739 23.1871 11.0261 23.1871 9.8266 21.9876L9.01199 21.173C8.812 20.973 8.53831 20.8591 8.25281 20.8591H7.10112C5.40277 20.8591 4.02809 19.4844 4.02809 17.7861V16.6344C4.02809 16.3489 3.91423 16.0752 3.71424 15.8752L2.89963 15.0606C1.70012 13.8611 1.70012 11.9133 2.89963 10.7138L3.60674 11.4209L2.89963 10.7138L3.71424 9.8992C3.91423 9.69921 4.02809 9.42552 4.02809 9.14002V7.98833C4.02809 6.28998 5.40277 4.9153 7.10112 4.9153H8.25281C8.53831 4.9153 8.812 4.80144 9.01199 4.60145L9.8266 3.78684L10.5337 4.49395L9.8266 3.78684Z" fill="#535F79"/>
</svg>
