<svg width="24" height="25" viewBox="0 0 24 25" fill="none" xmlns="http://www.w3.org/2000/svg">
<path d="M15.1323 21.8872C15.6846 21.8872 16.1323 21.4395 16.1323 20.8872C16.1323 20.3349 15.6846 19.8872 15.1323 19.8872C14.58 19.8872 14.1323 20.3349 14.1323 20.8872C14.1323 21.4395 14.58 21.8872 15.1323 21.8872Z" fill="#535F79"/>
<path d="M10.1323 21.8872C10.6846 21.8872 11.1323 21.4395 11.1323 20.8872C11.1323 20.3349 10.6846 19.8872 10.1323 19.8872C9.58004 19.8872 9.13232 20.3349 9.13232 20.8872C9.13232 21.4395 9.58004 21.8872 10.1323 21.8872Z" fill="#535F79"/>
<path fill-rule="evenodd" clip-rule="evenodd" d="M2.13232 4.88721C2.13232 4.33492 2.58004 3.88721 3.13232 3.88721H5.95873C7.71385 3.88721 9.09412 5.38729 8.94836 7.13634L8.30938 14.8042C8.26079 15.3872 8.72088 15.8872 9.30592 15.8872H18.3668C18.8711 15.8872 19.2965 15.5117 19.359 15.0112L19.859 11.0112C19.9336 10.4144 19.4683 9.88721 18.8668 9.88721H16.1323C15.58 9.88721 15.1323 9.43949 15.1323 8.88721C15.1323 8.33492 15.58 7.88721 16.1323 7.88721H18.8668C20.6713 7.88721 22.0674 9.46875 21.8436 11.2593L21.3436 15.2593C21.1559 16.7606 19.8797 17.8872 18.3668 17.8872H9.30592C7.5508 17.8872 6.17053 16.3871 6.31629 14.6381L6.95527 6.97025C7.00386 6.38723 6.54377 5.88721 5.95873 5.88721H3.13232C2.58004 5.88721 2.13232 5.43949 2.13232 4.88721Z" fill="#535F79"/>
</svg>
